<svg width="24" height="25" viewBox="0 0 24 25" fill="none" xmlns="http://www.w3.org/2000/svg">
<path fill-rule="evenodd" clip-rule="evenodd" d="M23.9022 10.9546C23.7074 9.45798 23.2273 7.97282 22.4368 6.57931V6.58035C19.504 1.40833 13.3061 -0.750677 7.89972 1.22294L15.614 5.15872C16.869 5.77424 17.9782 6.71679 18.7999 7.94783L20.6755 12.5704C20.6755 12.5704 19.3186 13.5542 23.9022 10.9546ZM3.94063 11.0932V11.0973C3.88023 11.441 3.84168 11.7899 3.82606 12.1399L2.93139 20.3582C2.4221 19.7698 1.96282 19.122 1.56393 18.419C-1.31162 13.349 -0.0930824 7.07406 4.16348 3.41115L7.99409 5.36602L7.96282 5.38372C5.7507 6.63872 4.34679 8.7696 3.93957 11.0942L3.94063 11.0932ZM16.2845 19.4679L23.6717 15.278C22.927 18.4045 20.9357 21.2249 17.9196 22.936C14.1942 25.0492 9.81786 24.9513 6.30597 23.0621L6.77047 18.794C9.31169 20.9051 12.9923 21.3426 16.0365 19.6168C16.1199 19.5689 16.2022 19.52 16.2834 19.47L16.2845 19.4679Z" fill="#FCFCFC"/>
</svg>
