<svg width="25" height="25" viewBox="0 0 25 25" fill="none" xmlns="http://www.w3.org/2000/svg">
<path d="M20.5 10.057V3.5H18.5V5.5H6.5V3.5H4.5V10.057C3.31 10.75 2.5 12.025 2.5 13.5V17.5C2.5 17.7652 2.60536 18.0196 2.79289 18.2071C2.98043 18.3946 3.23478 18.5 3.5 18.5H4.5V22.5H6.5V18.5H18.5V22.5H20.5V18.5H21.5C21.7652 18.5 22.0196 18.3946 22.2071 18.2071C22.3946 18.0196 22.5 17.7652 22.5 17.5V13.5C22.5 12.025 21.689 10.75 20.5 10.057ZM18.5 7.5V9.5H13.5V7.5H18.5ZM6.5 7.5H11.5V9.5H6.5V7.5ZM20.5 16.5H4.5V13.5C4.5 12.397 5.397 11.5 6.5 11.5H18.5C19.603 11.5 20.5 12.397 20.5 13.5V16.5Z" fill="#70707B"/>
</svg>
